# Blender v2.82 (sub 7) OBJ File: 'bb8.blend'
# www.blender.org
mtllib antenna2.mtl
o Cylinder.001
v -0.108542 1.308981 -0.025451
v -0.108542 1.359884 -0.025451
v -0.103576 1.308981 -0.024962
v -0.103576 1.359884 -0.024962
v -0.098802 1.308981 -0.023514
v -0.098802 1.359884 -0.023514
v -0.094402 1.308981 -0.021162
v -0.094402 1.359884 -0.021162
v -0.090545 1.308981 -0.017997
v -0.090545 1.359884 -0.017997
v -0.087380 1.308981 -0.014140
v -0.087380 1.359884 -0.014140
v -0.085028 1.308981 -0.009740
v -0.085028 1.359884 -0.009740
v -0.083579 1.308981 -0.004965
v -0.083579 1.359884 -0.004965
v -0.083090 1.308981 -0.000000
v -0.083090 1.359884 -0.000000
v -0.083579 1.308981 0.004965
v -0.083579 1.359884 0.004965
v -0.085028 1.308981 0.009740
v -0.085028 1.359884 0.009740
v -0.087380 1.308981 0.014140
v -0.087380 1.359884 0.014140
v -0.090545 1.308981 0.017997
v -0.090545 1.359884 0.017997
v -0.094402 1.308981 0.021162
v -0.094402 1.359884 0.021162
v -0.098802 1.308981 0.023514
v -0.098802 1.359884 0.023514
v -0.103576 1.308981 0.024962
v -0.103576 1.359884 0.024962
v -0.108542 1.308981 0.025451
v -0.108542 1.359884 0.025451
v -0.113507 1.308981 0.024962
v -0.113507 1.359884 0.024962
v -0.118282 1.308981 0.023514
v -0.118282 1.359884 0.023514
v -0.122682 1.308981 0.021162
v -0.122682 1.359884 0.021162
v -0.126539 1.308981 0.017997
v -0.126539 1.359884 0.017997
v -0.129704 1.308981 0.014140
v -0.129704 1.359884 0.014140
v -0.132056 1.308981 0.009740
v -0.132056 1.359884 0.009740
v -0.133504 1.308981 0.004965
v -0.133504 1.359884 0.004965
v -0.133993 1.308981 -0.000000
v -0.133993 1.359884 -0.000000
v -0.133504 1.308981 -0.004965
v -0.133504 1.359884 -0.004965
v -0.132056 1.308981 -0.009740
v -0.132056 1.359884 -0.009740
v -0.129704 1.308981 -0.014140
v -0.129704 1.359884 -0.014140
v -0.126539 1.308981 -0.017997
v -0.126539 1.359884 -0.017997
v -0.122682 1.308981 -0.021162
v -0.122682 1.359884 -0.021162
v -0.118281 1.308981 -0.023514
v -0.118281 1.359884 -0.023514
v -0.113507 1.308981 -0.024962
v -0.113507 1.359884 -0.024962
v -0.103576 1.733513 -0.024962
v -0.108542 1.733513 -0.025451
v -0.098802 1.733513 -0.023514
v -0.094402 1.733513 -0.021162
v -0.090545 1.733513 -0.017997
v -0.087380 1.733513 -0.014140
v -0.085028 1.733513 -0.009740
v -0.083579 1.733513 -0.004965
v -0.083090 1.733513 -0.000000
v -0.083579 1.733513 0.004965
v -0.085028 1.733513 0.009740
v -0.087380 1.733513 0.014140
v -0.090545 1.733513 0.017997
v -0.094402 1.733513 0.021162
v -0.098802 1.733513 0.023514
v -0.103576 1.733513 0.024962
v -0.108542 1.733513 0.025451
v -0.113507 1.733513 0.024962
v -0.118282 1.733513 0.023514
v -0.122682 1.733513 0.021162
v -0.126539 1.733513 0.017997
v -0.129704 1.733513 0.014140
v -0.132056 1.733513 0.009740
v -0.133504 1.733513 0.004965
v -0.133993 1.733513 -0.000000
v -0.133504 1.733513 -0.004965
v -0.132056 1.733513 -0.009740
v -0.129704 1.733513 -0.014140
v -0.126539 1.733513 -0.017997
v -0.122682 1.733513 -0.021162
v -0.118282 1.733513 -0.023514
v -0.113507 1.733513 -0.024962
vt 0.998999 0.498999
vt 0.998999 0.334334
vt 0.917668 0.334334
vt 0.917668 0.498999
vt 0.667668 0.998999
vt 0.832332 0.998999
vt 0.832332 0.917668
vt 0.667668 0.917668
vt 0.248999 0.165666
vt 0.248999 0.001001
vt 0.167668 0.001001
vt 0.167668 0.165666
vt 0.167668 0.248999
vt 0.332332 0.248999
vt 0.332332 0.167668
vt 0.167668 0.167668
vt 0.332332 0.165666
vt 0.332332 0.001001
vt 0.251001 0.001001
vt 0.251001 0.165666
vt 0.167668 0.332332
vt 0.332332 0.332332
vt 0.332332 0.251001
vt 0.167668 0.251001
vt 0.415666 0.165666
vt 0.415666 0.001001
vt 0.334334 0.001001
vt 0.334334 0.165666
vt 0.001001 0.415666
vt 0.165666 0.415666
vt 0.165666 0.334334
vt 0.001001 0.334334
vt 0.415666 0.332332
vt 0.415666 0.167668
vt 0.334334 0.167668
vt 0.334334 0.332332
vt 0.167668 0.415666
vt 0.332332 0.415666
vt 0.332332 0.334334
vt 0.167668 0.334334
vt 0.498999 0.165666
vt 0.498999 0.001001
vt 0.417668 0.001001
vt 0.417668 0.165666
vt 0.001001 0.498999
vt 0.165666 0.498999
vt 0.165666 0.417668
vt 0.001001 0.417668
vt 0.498999 0.332332
vt 0.498999 0.167668
vt 0.417668 0.167668
vt 0.417668 0.332332
vt 0.167668 0.498999
vt 0.332332 0.498999
vt 0.332332 0.417668
vt 0.167668 0.417668
vt 0.415666 0.498999
vt 0.415666 0.334334
vt 0.334334 0.334334
vt 0.334334 0.498999
vt 0.001001 0.582332
vt 0.165666 0.582332
vt 0.165666 0.501001
vt 0.001001 0.501001
vt 0.498999 0.498999
vt 0.498999 0.334334
vt 0.417668 0.334334
vt 0.417668 0.498999
vt 0.167668 0.582332
vt 0.332332 0.582332
vt 0.332332 0.501001
vt 0.167668 0.501001
vt 0.582332 0.165666
vt 0.582332 0.001001
vt 0.501001 0.001001
vt 0.501001 0.165666
vt 0.334334 0.582332
vt 0.498999 0.582332
vt 0.498999 0.501001
vt 0.334334 0.501001
vt 0.582332 0.332332
vt 0.582332 0.167668
vt 0.501001 0.167668
vt 0.501001 0.332332
vt 0.001001 0.665666
vt 0.165666 0.665666
vt 0.165666 0.584334
vt 0.001001 0.584334
vt 0.582332 0.498999
vt 0.582332 0.334334
vt 0.501001 0.334334
vt 0.501001 0.498999
vt 0.167668 0.665666
vt 0.332332 0.665666
vt 0.332332 0.584334
vt 0.167668 0.584334
vt 0.665666 0.165666
vt 0.665666 0.001001
vt 0.584334 0.001001
vt 0.584334 0.165666
vt 0.334334 0.665666
vt 0.498999 0.665666
vt 0.498999 0.584334
vt 0.334334 0.584334
vt 0.665666 0.332332
vt 0.665666 0.167668
vt 0.584334 0.167668
vt 0.584334 0.332332
vt 0.501001 0.582332
vt 0.665666 0.582332
vt 0.665666 0.501001
vt 0.501001 0.501001
vt 0.665666 0.498999
vt 0.665666 0.334334
vt 0.584334 0.334334
vt 0.584334 0.498999
vt 0.501001 0.665666
vt 0.665666 0.665666
vt 0.665666 0.584334
vt 0.501001 0.584334
vt 0.748999 0.001001
vt 0.667668 0.001001
vt 0.667668 0.165666
vt 0.748999 0.165666
vt 0.001001 0.748999
vt 0.165666 0.748999
vt 0.165666 0.667668
vt 0.001001 0.667668
vt 0.748999 0.332332
vt 0.748999 0.167668
vt 0.667668 0.167668
vt 0.667668 0.332332
vt 0.135817 0.186048
vt 0.147285 0.197516
vt 0.156295 0.211001
vt 0.162502 0.225985
vt 0.165666 0.241891
vt 0.165666 0.258109
vt 0.162502 0.274015
vt 0.156295 0.288999
vt 0.147285 0.302484
vt 0.135817 0.313952
vt 0.122332 0.322962
vt 0.107349 0.329168
vt 0.091442 0.332332
vt 0.075224 0.332332
vt 0.059318 0.329168
vt 0.044334 0.322962
vt 0.030850 0.313952
vt 0.019382 0.302484
vt 0.010371 0.288999
vt 0.004165 0.274015
vt 0.001001 0.258109
vt 0.001001 0.241891
vt 0.004165 0.225984
vt 0.010371 0.211001
vt 0.019382 0.197516
vt 0.030850 0.186048
vt 0.044334 0.177038
vt 0.059318 0.170832
vt 0.075224 0.167668
vt 0.091442 0.167668
vt 0.107349 0.170832
vt 0.122332 0.177038
vt 0.030850 0.019382
vt 0.044334 0.010371
vt 0.059318 0.004165
vt 0.075224 0.001001
vt 0.091442 0.001001
vt 0.107349 0.004165
vt 0.122332 0.010371
vt 0.135817 0.019382
vt 0.147285 0.030850
vt 0.156295 0.044334
vt 0.162502 0.059318
vt 0.165666 0.075224
vt 0.165666 0.091442
vt 0.162502 0.107349
vt 0.156295 0.122332
vt 0.147285 0.135817
vt 0.135817 0.147285
vt 0.122332 0.156295
vt 0.107349 0.162502
vt 0.091442 0.165666
vt 0.075224 0.165666
vt 0.059318 0.162502
vt 0.044334 0.156295
vt 0.030849 0.147285
vt 0.019382 0.135817
vt 0.010371 0.122332
vt 0.004165 0.107349
vt 0.001001 0.091442
vt 0.001001 0.075224
vt 0.004165 0.059318
vt 0.010371 0.044334
vt 0.019382 0.030849
vt 0.332332 0.748999
vt 0.332332 0.667668
vt 0.167668 0.667668
vt 0.167668 0.748999
vt 0.748999 0.334334
vt 0.667668 0.334334
vt 0.667668 0.498999
vt 0.748999 0.498999
vt 0.498999 0.748999
vt 0.498999 0.667668
vt 0.334334 0.667668
vt 0.334334 0.748999
vt 0.748999 0.501001
vt 0.667668 0.501001
vt 0.667668 0.665666
vt 0.748999 0.665666
vt 0.665666 0.748999
vt 0.665666 0.667668
vt 0.501001 0.667668
vt 0.501001 0.748999
vt 0.832332 0.001001
vt 0.751001 0.001001
vt 0.751001 0.165666
vt 0.832332 0.165666
vt 0.165666 0.832332
vt 0.165666 0.751001
vt 0.001001 0.751001
vt 0.001001 0.832332
vt 0.832332 0.167668
vt 0.751001 0.167668
vt 0.751001 0.332332
vt 0.832332 0.332332
vt 0.332332 0.832332
vt 0.332332 0.751001
vt 0.167668 0.751001
vt 0.167668 0.832332
vt 0.832332 0.334334
vt 0.751001 0.334334
vt 0.751001 0.498999
vt 0.832332 0.498999
vt 0.498999 0.832332
vt 0.498999 0.751001
vt 0.334334 0.751001
vt 0.334334 0.832332
vt 0.832332 0.501001
vt 0.751001 0.501001
vt 0.751001 0.665666
vt 0.832332 0.665666
vt 0.665666 0.832332
vt 0.665666 0.751001
vt 0.501001 0.751001
vt 0.501001 0.832332
vt 0.748999 0.667668
vt 0.667668 0.667668
vt 0.667668 0.832332
vt 0.748999 0.832332
vt 0.165666 0.915666
vt 0.165666 0.834334
vt 0.001001 0.834334
vt 0.001001 0.915666
vt 0.832332 0.667668
vt 0.751001 0.667668
vt 0.751001 0.832332
vt 0.832332 0.832332
vt 0.332332 0.915666
vt 0.332332 0.834334
vt 0.167668 0.834334
vt 0.167668 0.915666
vt 0.915666 0.001001
vt 0.834334 0.001001
vt 0.834334 0.165666
vt 0.915666 0.165666
vt 0.498999 0.915666
vt 0.498999 0.834334
vt 0.334334 0.834334
vt 0.334334 0.915666
vt 0.915666 0.167668
vt 0.834334 0.167668
vt 0.834334 0.332332
vt 0.915666 0.332332
vt 0.665666 0.915666
vt 0.665666 0.834334
vt 0.501001 0.834334
vt 0.501001 0.915666
vt 0.915666 0.334334
vt 0.834334 0.334334
vt 0.834334 0.498999
vt 0.915666 0.498999
vt 0.832332 0.915666
vt 0.832332 0.834334
vt 0.667668 0.834334
vt 0.667668 0.915666
vt 0.915666 0.501001
vt 0.834334 0.501001
vt 0.834334 0.665666
vt 0.915666 0.665666
vt 0.165666 0.998999
vt 0.165666 0.917668
vt 0.001001 0.917668
vt 0.001001 0.998999
vt 0.915666 0.667668
vt 0.834334 0.667668
vt 0.834334 0.832332
vt 0.915666 0.832332
vt 0.332332 0.998999
vt 0.332332 0.917668
vt 0.167668 0.917668
vt 0.167668 0.998999
vt 0.998999 0.001001
vt 0.917668 0.001001
vt 0.917668 0.165666
vt 0.998999 0.165666
vt 0.498999 0.998999
vt 0.498999 0.917668
vt 0.334334 0.917668
vt 0.334334 0.998999
vt 0.998999 0.167668
vt 0.917668 0.167668
vt 0.917668 0.332332
vt 0.998999 0.332332
vt 0.665666 0.998999
vt 0.665666 0.917668
vt 0.501001 0.917668
vt 0.501001 0.998999
vn 0.0980 0.0000 -0.9952
vn 0.2903 0.0000 -0.9569
vn 0.4714 0.0000 -0.8819
vn 0.6344 0.0000 -0.7730
vn 0.7730 0.0000 -0.6344
vn 0.8819 0.0000 -0.4714
vn 0.9569 0.0000 -0.2903
vn 0.9952 0.0000 -0.0980
vn 0.9952 0.0000 0.0980
vn 0.9569 0.0000 0.2903
vn 0.8819 0.0000 0.4714
vn 0.7730 0.0000 0.6344
vn 0.6344 0.0000 0.7730
vn 0.4714 0.0000 0.8819
vn 0.2903 0.0000 0.9569
vn 0.0980 0.0000 0.9952
vn -0.0980 0.0000 0.9952
vn -0.2903 0.0000 0.9569
vn -0.4714 0.0000 0.8819
vn -0.6344 0.0000 0.7730
vn -0.7730 0.0000 0.6344
vn -0.8819 0.0000 0.4714
vn -0.9569 0.0000 0.2903
vn -0.9952 0.0000 0.0980
vn -0.9952 0.0000 -0.0980
vn -0.9569 0.0000 -0.2903
vn -0.8819 0.0000 -0.4714
vn -0.7730 0.0000 -0.6344
vn -0.6344 0.0000 -0.7730
vn -0.4714 0.0000 -0.8819
vn -0.2903 0.0000 -0.9569
vn -0.0980 0.0000 -0.9952
vn 0.0000 -1.0000 0.0000
vn 0.0000 1.0000 0.0000
usemtl Material.005
s off
f 1/1/1 2/2/1 4/3/1 3/4/1
f 3/5/2 4/6/2 6/7/2 5/8/2
f 5/9/3 6/10/3 8/11/3 7/12/3
f 7/13/4 8/14/4 10/15/4 9/16/4
f 9/17/5 10/18/5 12/19/5 11/20/5
f 11/21/6 12/22/6 14/23/6 13/24/6
f 13/25/7 14/26/7 16/27/7 15/28/7
f 15/29/8 16/30/8 18/31/8 17/32/8
f 17/33/9 18/34/9 20/35/9 19/36/9
f 19/37/10 20/38/10 22/39/10 21/40/10
f 21/41/11 22/42/11 24/43/11 23/44/11
f 23/45/12 24/46/12 26/47/12 25/48/12
f 25/49/13 26/50/13 28/51/13 27/52/13
f 27/53/14 28/54/14 30/55/14 29/56/14
f 29/57/15 30/58/15 32/59/15 31/60/15
f 31/61/16 32/62/16 34/63/16 33/64/16
f 33/65/17 34/66/17 36/67/17 35/68/17
f 35/69/18 36/70/18 38/71/18 37/72/18
f 37/73/19 38/74/19 40/75/19 39/76/19
f 39/77/20 40/78/20 42/79/20 41/80/20
f 41/81/21 42/82/21 44/83/21 43/84/21
f 43/85/22 44/86/22 46/87/22 45/88/22
f 45/89/23 46/90/23 48/91/23 47/92/23
f 47/93/24 48/94/24 50/95/24 49/96/24
f 49/97/25 50/98/25 52/99/25 51/100/25
f 51/101/26 52/102/26 54/103/26 53/104/26
f 53/105/27 54/106/27 56/107/27 55/108/27
f 55/109/28 56/110/28 58/111/28 57/112/28
f 57/113/29 58/114/29 60/115/29 59/116/29
f 59/117/30 60/118/30 62/119/30 61/120/30
f 22/121/10 20/122/10 74/123/10 75/124/10
f 61/125/31 62/126/31 64/127/31 63/128/31
f 63/129/32 64/130/32 2/131/32 1/132/32
f 1/133/33 3/134/33 5/135/33 7/136/33 9/137/33 11/138/33 13/139/33 15/140/33 17/141/33 19/142/33 21/143/33 23/144/33 25/145/33 27/146/33 29/147/33 31/148/33 33/149/33 35/150/33 37/151/33 39/152/33 41/153/33 43/154/33 45/155/33 47/156/33 49/157/33 51/158/33 53/159/33 55/160/33 57/161/33 59/162/33 61/163/33 63/164/33
f 65/165/34 66/166/34 96/167/34 95/168/34 94/169/34 93/170/34 92/171/34 91/172/34 90/173/34 89/174/34 88/175/34 87/176/34 86/177/34 85/178/34 84/179/34 83/180/34 82/181/34 81/182/34 80/183/34 79/184/34 78/185/34 77/186/34 76/187/34 75/188/34 74/189/34 73/190/34 72/191/34 71/192/34 70/193/34 69/194/34 68/195/34 67/196/34
f 40/197/19 38/198/19 83/199/19 84/200/19
f 58/201/28 56/202/28 92/203/28 93/204/28
f 14/205/6 12/206/6 70/207/6 71/208/6
f 32/209/15 30/210/15 79/211/15 80/212/15
f 50/213/24 48/214/24 88/215/24 89/216/24
f 6/217/2 4/218/2 65/219/2 67/220/2
f 24/221/11 22/222/11 75/223/11 76/224/11
f 42/225/20 40/226/20 84/227/20 85/228/20
f 60/229/29 58/230/29 93/231/29 94/232/29
f 16/233/7 14/234/7 71/235/7 72/236/7
f 34/237/16 32/238/16 80/239/16 81/240/16
f 52/241/25 50/242/25 89/243/25 90/244/25
f 8/245/3 6/246/3 67/247/3 68/248/3
f 26/249/12 24/250/12 76/251/12 77/252/12
f 44/253/21 42/254/21 85/255/21 86/256/21
f 62/257/30 60/258/30 94/259/30 95/260/30
f 18/261/8 16/262/8 72/263/8 73/264/8
f 36/265/17 34/266/17 81/267/17 82/268/17
f 54/269/26 52/270/26 90/271/26 91/272/26
f 10/273/4 8/274/4 68/275/4 69/276/4
f 28/277/13 26/278/13 77/279/13 78/280/13
f 46/281/22 44/282/22 86/283/22 87/284/22
f 64/285/31 62/286/31 95/287/31 96/288/31
f 20/289/9 18/290/9 73/291/9 74/292/9
f 38/293/18 36/294/18 82/295/18 83/296/18
f 56/297/27 54/298/27 91/299/27 92/300/27
f 12/301/5 10/302/5 69/303/5 70/304/5
f 30/305/14 28/306/14 78/307/14 79/308/14
f 48/309/23 46/310/23 87/311/23 88/312/23
f 4/313/1 2/314/1 66/315/1 65/316/1
f 2/317/32 64/318/32 96/319/32 66/320/32
