# Blender v2.82 (sub 7) OBJ File: 'playground.blend'
# www.blender.org
mtllib l2.mtl
o FlyTrack.001_Plane.002
v -19.999952 12.340643 -79.523888
v -19.999952 12.340953 -75.523888
v 19.785355 1.308578 -78.809608
v 19.785355 1.308578 -74.247772
v -19.999952 12.340666 -77.523888
v 19.785355 0.933109 -76.809608
v -19.999952 12.340666 -76.523888
v 19.785355 0.875216 -75.493073
v 19.785355 1.052274 -77.809608
v -19.999952 12.340666 -78.523888
v -0.097603 7.049232 -79.523888
v -0.097603 7.049232 -75.523888
v -0.097603 6.795332 -77.523888
v -0.097603 6.795332 -76.523888
v -0.097603 6.795332 -78.523888
v -10.039082 9.516634 -79.523888
v -10.039082 9.516634 -75.523888
v -10.039082 9.262733 -77.523888
v -10.039082 9.262733 -76.523888
v -10.039082 9.262733 -78.523888
v 9.843876 4.565808 -75.523888
v 9.843876 4.311908 -77.523888
v 9.843876 4.311908 -76.523888
v 9.843876 4.311908 -78.523888
v 9.843876 4.565808 -79.523888
v 14.814613 2.979194 -75.276024
v 14.814613 2.725294 -77.276024
v 14.814613 2.725294 -76.276024
v 14.814613 2.725294 -78.276024
v 14.814613 2.979194 -79.276024
v 4.873137 5.296244 -79.523888
v 4.873137 5.296244 -75.523888
v 4.873137 5.042344 -77.523888
v 4.873137 5.042344 -76.523888
v 4.873137 5.042344 -78.523888
v -5.068342 8.817741 -75.523888
v -5.068342 8.563842 -77.523888
v -5.068342 8.563842 -76.523888
v -5.068342 8.563842 -78.523888
v -5.068342 8.817741 -79.523888
v -15.009821 11.562710 -79.523888
v -15.009821 11.562710 -75.523888
v -15.009821 11.308809 -77.523888
v -15.009821 11.308809 -76.523888
v -15.009821 11.308809 -78.523888
v -17.495192 12.122131 -79.523888
v -17.495190 12.122131 -75.523888
v -17.495190 12.032821 -77.523888
v -17.495190 12.032821 -76.523888
v -17.495192 12.032821 -78.523888
v -12.524451 10.337259 -75.523888
v -12.524451 10.083360 -77.523888
v -12.524451 10.083360 -76.523888
v -12.524451 10.083360 -78.523888
v -12.524451 10.337259 -79.523888
v -7.553712 9.106817 -79.523888
v -7.553712 9.106817 -75.523888
v -7.553712 8.852918 -77.523888
v -7.553712 8.852918 -76.523888
v -7.553712 8.852918 -78.523888
v -2.582973 8.139977 -75.523888
v -2.582973 7.886076 -77.523888
v -2.582973 7.886076 -76.523888
v -2.582973 7.886076 -78.523888
v -2.582973 8.139977 -79.523888
v 2.387768 5.946820 -79.523888
v 2.387768 5.946820 -75.523888
v 2.387768 5.692920 -77.523888
v 2.387768 5.692920 -76.523888
v 2.387768 5.692920 -78.523888
v 7.358505 4.944856 -75.523888
v 7.358505 4.690955 -77.523888
v 7.358505 4.690955 -76.523888
v 7.358505 4.690955 -78.523888
v 7.358505 4.944856 -79.523888
v 12.329245 3.978687 -79.523888
v 12.329245 3.978687 -75.523888
v 12.329245 3.724788 -77.523888
v 12.329245 3.724788 -76.523888
v 12.329245 3.724788 -78.523888
v 17.299984 1.768539 -74.879181
v 17.299984 1.679229 -76.879181
v 17.299984 1.679229 -75.879181
v 17.299984 1.679229 -77.879181
v 17.299984 1.768539 -78.879181
v 24.070049 0.150713 -79.096420
v 24.070049 -0.271130 -72.049889
v 24.070049 0.061403 -77.096420
v 24.070049 -0.099972 -73.938530
v 24.070049 0.061403 -78.096420
vt 0.076517 0.155145
vt 0.054937 0.154944
vt 0.042106 0.100445
vt 0.070345 0.098847
vt 0.119440 0.156785
vt 0.097981 0.155963
vt 0.098554 0.100274
vt 0.120112 0.101747
vt 0.140946 0.158245
vt 0.142184 0.103935
vt 0.139483 0.611292
vt 0.117295 0.608786
vt 0.119147 0.550050
vt 0.141096 0.552911
vt 0.095505 0.608060
vt 0.073758 0.607278
vt 0.076138 0.548504
vt 0.097600 0.549320
vt 0.051437 0.608185
vt 0.054020 0.549780
vt 0.066330 0.827023
vt 0.044338 0.828186
vt 0.046309 0.772083
vt 0.068373 0.771490
vt 0.108937 0.828612
vt 0.087588 0.827858
vt 0.089641 0.772265
vt 0.110886 0.773081
vt 0.130769 0.831353
vt 0.132859 0.775260
vt 0.147468 0.385262
vt 0.125199 0.383559
vt 0.127291 0.329029
vt 0.149598 0.330903
vt 0.103643 0.382753
vt 0.082031 0.382021
vt 0.083832 0.327506
vt 0.105579 0.328251
vt 0.059713 0.382129
vt 0.061455 0.327788
vt 0.151570 0.275742
vt 0.129343 0.273379
vt 0.125916 0.215083
vt 0.147944 0.217870
vt 0.107552 0.272622
vt 0.085771 0.271838
vt 0.082778 0.213473
vt 0.104318 0.214307
vt 0.063402 0.272631
vt 0.060619 0.214711
vt 0.078472 0.490454
vt 0.056460 0.491446
vt 0.058200 0.436267
vt 0.080347 0.435866
vt 0.120988 0.492042
vt 0.099713 0.491260
vt 0.101710 0.436621
vt 0.123027 0.437440
vt 0.142866 0.494611
vt 0.145102 0.439428
vt 0.070079 0.717737
vt 0.047824 0.717869
vt 0.049277 0.663814
vt 0.071702 0.663536
vt 0.113036 0.719298
vt 0.091600 0.718467
vt 0.093528 0.664264
vt 0.115302 0.665041
vt 0.135248 0.721024
vt 0.137664 0.666928
vt 0.126800 0.945738
vt 0.105103 0.944488
vt 0.107210 0.888200
vt 0.129350 0.890853
vt 0.083455 0.943707
vt 0.061765 0.942955
vt 0.063738 0.886696
vt 0.085444 0.887479
vt 0.040045 0.942642
vt 0.041449 0.887737
vt 0.059937 0.997520
vt 0.038375 0.996856
vt 0.103005 0.999075
vt 0.081495 0.998269
vt 0.124571 0.999961
vt 0.040639 0.003347
vt 0.108589 0.006770
vt 0.130039 0.007627
vt 0.151570 0.008862
vt 0.000039 0.000039
vn 0.2821 0.9344 -0.2175
vn 0.2643 0.9627 0.0574
vn 0.2956 0.9550 0.0239
vn 0.2062 0.9642 0.1666
vn 0.3914 0.8919 0.2265
vn 0.4019 0.9157 0.0000
vn 0.3914 0.8919 -0.2265
vn 0.3048 0.9231 -0.2344
vn 0.3135 0.9496 0.0000
vn 0.3048 0.9231 0.2344
vn 0.1462 0.9588 0.2434
vn 0.1508 0.9886 0.0000
vn 0.1462 0.9588 -0.2434
vn 0.3431 0.9104 0.2312
vn 0.3731 0.9278 0.0000
vn 0.3828 0.8954 -0.2273
vn 0.2459 0.9395 -0.2385
vn 0.2532 0.9674 0.0000
vn 0.2459 0.9395 0.2385
vn 0.1120 0.9631 -0.2445
vn 0.1155 0.9933 0.0000
vn 0.1120 0.9631 0.2445
vn 0.2466 0.9552 0.1639
vn 0.2797 0.9601 0.0000
vn 0.2466 0.9552 -0.1639
vn 0.1045 0.9935 -0.0445
vn 0.1220 0.9925 0.0000
vn 0.1044 0.9935 0.0444
vn 0.4312 0.8745 0.2220
vn 0.4422 0.8969 0.0000
vn 0.4312 0.8745 -0.2220
vn 0.1578 0.9571 0.2430
vn 0.1627 0.9867 0.0000
vn 0.1578 0.9571 -0.2430
vn 0.2555 0.9371 -0.2379
vn 0.2631 0.9648 0.0000
vn 0.2555 0.9371 0.2379
vn 0.3950 0.8904 0.2261
vn 0.4055 0.9141 0.0000
vn 0.3950 0.8904 -0.2261
vn 0.1358 0.9603 -0.2438
vn 0.1400 0.9902 0.0000
vn 0.1358 0.9603 0.2438
vn 0.2232 0.9448 -0.2399
vn 0.2299 0.9732 0.0000
vn 0.2232 0.9448 0.2399
vn 0.3876 0.9086 0.1559
vn 0.3879 0.9217 0.0000
vn 0.4287 0.8904 -0.1528
vn 0.2037 0.9779 0.0479
vn 0.2503 0.9540 0.1649
vn 0.2157 0.9747 0.0581
vn 0.3165 0.9453 -0.0791
usemtl Material.005
s off
f 83/1/1 81/2/1 4/3/1 8/4/1
f 84/5/2 82/6/2 6/7/2 9/8/2
f 82/6/3 83/1/3 8/4/3 6/7/3
f 85/9/4 84/5/4 9/8/4 3/10/4
f 65/11/5 64/12/5 15/13/5 11/14/5
f 62/15/6 63/16/6 14/17/6 13/18/6
f 64/12/6 62/15/6 13/18/6 15/13/6
f 63/16/7 61/19/7 12/20/7 14/17/7
f 53/21/8 51/22/8 17/23/8 19/24/8
f 54/25/9 52/26/9 18/27/9 20/28/9
f 52/26/9 53/21/9 19/24/9 18/27/9
f 55/29/10 54/25/10 20/28/10 16/30/10
f 75/31/11 74/32/11 24/33/11 25/34/11
f 72/35/12 73/36/12 23/37/12 22/38/12
f 74/32/12 72/35/12 22/38/12 24/33/12
f 73/36/13 71/39/13 21/40/13 23/37/13
f 76/41/14 80/42/14 29/43/14 30/44/14
f 78/45/15 79/46/15 28/47/15 27/48/15
f 80/42/15 78/45/15 27/48/15 29/43/15
f 79/46/16 77/49/16 26/50/16 28/47/16
f 69/51/17 67/52/17 32/53/17 34/54/17
f 70/55/18 68/56/18 33/57/18 35/58/18
f 68/56/18 69/51/18 34/54/18 33/57/18
f 66/59/19 70/55/19 35/58/19 31/60/19
f 59/61/20 57/62/20 36/63/20 38/64/20
f 60/65/21 58/66/21 37/67/21 39/68/21
f 58/66/21 59/61/21 38/64/21 37/67/21
f 56/69/22 60/65/22 39/68/22 40/70/22
f 46/71/23 50/72/23 45/73/23 41/74/23
f 48/75/24 49/76/24 44/77/24 43/78/24
f 50/72/24 48/75/24 43/78/24 45/73/24
f 49/76/25 47/79/25 42/80/25 44/77/25
f 7/81/26 2/82/26 47/79/26 49/76/26
f 10/83/27 5/84/27 48/75/27 50/72/27
f 5/84/27 7/81/27 49/76/27 48/75/27
f 1/85/28 10/83/28 50/72/28 46/71/28
f 41/74/29 45/73/29 54/25/29 55/29/29
f 43/78/30 44/77/30 53/21/30 52/26/30
f 45/73/30 43/78/30 52/26/30 54/25/30
f 44/77/31 42/80/31 51/22/31 53/21/31
f 16/30/32 20/28/32 60/65/32 56/69/32
f 18/27/33 19/24/33 59/61/33 58/66/33
f 20/28/33 18/27/33 58/66/33 60/65/33
f 19/24/34 17/23/34 57/62/34 59/61/34
f 38/64/35 36/63/35 61/19/35 63/16/35
f 39/68/36 37/67/36 62/15/36 64/12/36
f 37/67/36 38/64/36 63/16/36 62/15/36
f 40/70/37 39/68/37 64/12/37 65/11/37
f 11/14/38 15/13/38 70/55/38 66/59/38
f 13/18/39 14/17/39 69/51/39 68/56/39
f 15/13/39 13/18/39 68/56/39 70/55/39
f 14/17/40 12/20/40 67/52/40 69/51/40
f 34/54/41 32/53/41 71/39/41 73/36/41
f 35/58/42 33/57/42 72/35/42 74/32/42
f 33/57/42 34/54/42 73/36/42 72/35/42
f 31/60/43 35/58/43 74/32/43 75/31/43
f 23/37/44 21/40/44 77/49/44 79/46/44
f 24/33/45 22/38/45 78/45/45 80/42/45
f 22/38/45 23/37/45 79/46/45 78/45/45
f 25/34/46 24/33/46 80/42/46 76/41/46
f 30/44/47 29/43/47 84/5/47 85/9/47
f 27/48/48 28/47/48 83/1/48 82/6/48
f 29/43/48 27/48/48 82/6/48 84/5/48
f 28/47/49 26/50/49 81/2/49 83/1/49
f 6/7/50 8/4/50 89/86/50 88/87/50
f 3/10/51 9/8/51 90/88/51 86/89/51
f 9/8/52 6/7/52 88/87/52 90/88/52
f 8/4/53 4/3/53 87/90/53 89/86/53
