# Blender v2.82 (sub 7) OBJ File: 'playground.blend'
# www.blender.org
mtllib l4.mtl
o FlyTrack.002_Plane.005
v -19.892197 0.085085 75.317787
v -19.892197 0.085085 79.317787
v 19.873718 0.085085 75.317787
v 19.873718 0.085085 79.317787
v -19.892197 -0.004225 77.317787
v 19.873718 -0.004225 77.317787
v -19.892197 -0.004225 78.317787
v 19.873718 -0.004225 78.317787
v 19.873718 -0.004225 76.317787
v -19.892197 -0.004225 76.317787
v -0.009239 -3.178808 75.317787
v -0.009239 -3.178808 79.317787
v -0.009239 -3.432708 77.317787
v -0.009239 -3.432708 78.317787
v -0.009239 -3.432708 76.317787
v -9.950718 -2.768992 75.317787
v -9.950718 -2.768992 79.317787
v -9.950718 -3.022892 77.317787
v -9.950718 -3.022892 78.317787
v -9.950718 -3.022892 76.317787
v 9.932240 -2.768992 79.317787
v 9.932240 -3.022892 77.317787
v 9.932240 -3.022892 78.317787
v 9.932240 -3.022892 76.317787
v 9.932240 -2.768992 75.317787
v 14.902977 -0.722916 79.317787
v 14.902977 -0.976816 77.317787
v 14.902977 -0.976816 78.317787
v 14.902977 -0.976816 76.317787
v 14.902977 -0.722916 75.317787
v 4.961500 -3.178808 75.317787
v 4.961500 -3.178808 79.317787
v 4.961500 -3.432708 77.317787
v 4.961500 -3.432708 78.317787
v 4.961500 -3.432708 76.317787
v -4.979979 -3.178808 79.317787
v -4.979979 -3.432708 77.317787
v -4.979979 -3.432708 78.317787
v -4.979979 -3.432708 76.317787
v -4.979979 -3.178808 75.317787
v -14.921457 -0.722916 75.317787
v -14.921457 -0.722916 79.317787
v -14.921457 -0.976816 77.317787
v -14.921457 -0.976816 78.317787
v -14.921457 -0.976816 76.317787
v -17.406828 -0.163495 75.317787
v -17.406826 -0.163495 79.317787
v -17.406826 -0.252805 77.317787
v -17.406826 -0.252805 78.317787
v -17.406828 -0.252805 76.317787
v -12.436088 -1.948366 79.317787
v -12.436088 -2.202266 77.317787
v -12.436088 -2.202266 78.317787
v -12.436088 -2.202266 76.317787
v -12.436088 -1.948366 75.317787
v -7.465348 -3.178808 75.317787
v -7.465348 -3.178808 79.317787
v -7.465348 -3.432708 77.317787
v -7.465348 -3.432708 78.317787
v -7.465348 -3.432708 76.317787
v -2.494609 -3.178808 79.317787
v -2.494609 -3.432708 77.317787
v -2.494609 -3.432708 78.317787
v -2.494609 -3.432708 76.317787
v -2.494609 -3.178808 75.317787
v 2.476131 -3.178808 75.317787
v 2.476131 -3.178808 79.317787
v 2.476131 -3.432708 77.317787
v 2.476131 -3.432708 78.317787
v 2.476131 -3.432708 76.317787
v 7.446869 -3.178808 79.317787
v 7.446869 -3.432708 77.317787
v 7.446869 -3.432708 78.317787
v 7.446869 -3.432708 76.317787
v 7.446869 -3.178808 75.317787
v 12.417608 -1.948366 75.317787
v 12.417608 -1.948366 79.317787
v 12.417608 -2.202266 77.317787
v 12.417608 -2.202266 78.317787
v 12.417608 -2.202266 76.317787
v 17.388348 -0.163495 79.317787
v 17.388348 -0.252805 77.317787
v 17.388348 -0.252805 78.317787
v 17.388348 -0.252805 76.317787
v 17.388348 -0.163495 75.317787
vt 0.025426 0.061808
vt 0.000729 0.061298
vt 0.000976 0.000032
vt 0.025600 0.000349
vt 0.074726 0.061780
vt 0.050053 0.061811
vt 0.050056 0.000391
vt 0.074567 0.000361
vt 0.099411 0.061278
vt 0.099176 0.000049
vt 0.100026 0.561071
vt 0.074653 0.561073
vt 0.074612 0.499978
vt 0.099979 0.499953
vt 0.050078 0.561085
vt 0.025505 0.561111
vt 0.025446 0.500023
vt 0.050029 0.500000
vt 0.000152 0.561148
vt 0.000079 0.500047
vt 0.025820 0.806382
vt 0.000898 0.808586
vt 0.000902 0.744801
vt 0.025919 0.743300
vt 0.074249 0.806453
vt 0.049984 0.806469
vt 0.050051 0.743338
vt 0.074192 0.743382
vt 0.099145 0.808667
vt 0.099194 0.744903
vt 0.099346 0.316839
vt 0.074148 0.317441
vt 0.074139 0.256700
vt 0.099156 0.255200
vt 0.049944 0.317435
vt 0.025780 0.317355
vt 0.025867 0.256618
vt 0.050007 0.256662
vt 0.000629 0.316697
vt 0.000865 0.255097
vt 0.099160 0.191414
vt 0.074238 0.193618
vt 0.074762 0.125767
vt 0.100026 0.123683
vt 0.050074 0.193531
vt 0.025809 0.193547
vt 0.025338 0.125828
vt 0.050084 0.125759
vt 0.000913 0.191333
vt 0.000093 0.123723
vt 0.025405 0.438927
vt 0.000032 0.438929
vt 0.000074 0.377780
vt 0.025458 0.377889
vt 0.074553 0.438890
vt 0.049980 0.438915
vt 0.049947 0.377924
vt 0.074485 0.377886
vt 0.099906 0.438852
vt 0.099780 0.377784
vt 0.025910 0.682559
vt 0.000712 0.683161
vt 0.000278 0.622216
vt 0.025573 0.622114
vt 0.074279 0.682645
vt 0.050114 0.682565
vt 0.050111 0.622076
vt 0.074600 0.622111
vt 0.099429 0.683303
vt 0.099984 0.622220
vt 0.099329 0.938702
vt 0.074633 0.938192
vt 0.074720 0.874172
vt 0.099965 0.876277
vt 0.050006 0.938188
vt 0.025332 0.938220
vt 0.025297 0.874234
vt 0.049974 0.874241
vt 0.000647 0.938722
vt 0.000032 0.876317
vt 0.025492 0.999639
vt 0.000882 0.999951
vt 0.074459 0.999651
vt 0.050003 0.999609
vt 0.099083 0.999968
vn -0.0991 0.9911 -0.0885
vn -0.0995 0.9950 0.0000
vn -0.0991 0.9911 0.0885
vn 0.0000 0.9692 0.2461
vn 0.0000 1.0000 0.0000
vn 0.0000 0.9692 -0.2461
vn 0.3048 0.9231 -0.2344
vn 0.3135 0.9496 0.0000
vn 0.3048 0.9231 0.2344
vn -0.1578 0.9571 0.2430
vn -0.1627 0.9867 0.0000
vn -0.1578 0.9571 -0.2430
vn -0.4312 0.8745 0.2220
vn -0.4422 0.8969 0.0000
vn -0.4312 0.8745 -0.2220
vn 0.2466 0.9552 0.1639
vn 0.2797 0.9601 0.0000
vn 0.2466 0.9552 -0.1639
vn 0.0991 0.9911 -0.0885
vn 0.0995 0.9950 -0.0000
vn 0.0991 0.9911 0.0885
vn 0.4312 0.8745 0.2220
vn 0.4422 0.8969 0.0000
vn 0.4312 0.8745 -0.2220
vn 0.1578 0.9571 0.2430
vn 0.1627 0.9867 0.0000
vn 0.1578 0.9571 -0.2430
vn -0.3048 0.9231 -0.2344
vn -0.3135 0.9496 0.0000
vn -0.3048 0.9231 0.2344
vn -0.2466 0.9552 0.1639
vn -0.2797 0.9601 0.0000
vn -0.2466 0.9552 -0.1639
usemtl Material.007
s off
f 83/1/1 81/2/1 4/3/1 8/4/1
f 84/5/2 82/6/2 6/7/2 9/8/2
f 82/6/2 83/1/2 8/4/2 6/7/2
f 85/9/3 84/5/3 9/8/3 3/10/3
f 65/11/4 64/12/4 15/13/4 11/14/4
f 62/15/5 63/16/5 14/17/5 13/18/5
f 64/12/5 62/15/5 13/18/5 15/13/5
f 63/16/6 61/19/6 12/20/6 14/17/6
f 53/21/7 51/22/7 17/23/7 19/24/7
f 54/25/8 52/26/8 18/27/8 20/28/8
f 52/26/8 53/21/8 19/24/8 18/27/8
f 55/29/9 54/25/9 20/28/9 16/30/9
f 75/31/10 74/32/10 24/33/10 25/34/10
f 72/35/11 73/36/11 23/37/11 22/38/11
f 74/32/11 72/35/11 22/38/11 24/33/11
f 73/36/12 71/39/12 21/40/12 23/37/12
f 76/41/13 80/42/13 29/43/13 30/44/13
f 78/45/14 79/46/14 28/47/14 27/48/14
f 80/42/14 78/45/14 27/48/14 29/43/14
f 79/46/15 77/49/15 26/50/15 28/47/15
f 69/51/6 67/52/6 32/53/6 34/54/6
f 70/55/5 68/56/5 33/57/5 35/58/5
f 68/56/5 69/51/5 34/54/5 33/57/5
f 66/59/4 70/55/4 35/58/4 31/60/4
f 59/61/6 57/62/6 36/63/6 38/64/6
f 60/65/5 58/66/5 37/67/5 39/68/5
f 58/66/5 59/61/5 38/64/5 37/67/5
f 56/69/4 60/65/4 39/68/4 40/70/4
f 46/71/16 50/72/16 45/73/16 41/74/16
f 48/75/17 49/76/17 44/77/17 43/78/17
f 50/72/17 48/75/17 43/78/17 45/73/17
f 49/76/18 47/79/18 42/80/18 44/77/18
f 7/81/19 2/82/19 47/79/19 49/76/19
f 10/83/20 5/84/20 48/75/20 50/72/20
f 5/84/20 7/81/20 49/76/20 48/75/20
f 1/85/21 10/83/21 50/72/21 46/71/21
f 41/74/22 45/73/22 54/25/22 55/29/22
f 43/78/23 44/77/23 53/21/23 52/26/23
f 45/73/23 43/78/23 52/26/23 54/25/23
f 44/77/24 42/80/24 51/22/24 53/21/24
f 16/30/25 20/28/25 60/65/25 56/69/25
f 18/27/26 19/24/26 59/61/26 58/66/26
f 20/28/26 18/27/26 58/66/26 60/65/26
f 19/24/27 17/23/27 57/62/27 59/61/27
f 38/64/6 36/63/6 61/19/6 63/16/6
f 39/68/5 37/67/5 62/15/5 64/12/5
f 37/67/5 38/64/5 63/16/5 62/15/5
f 40/70/4 39/68/4 64/12/4 65/11/4
f 11/14/4 15/13/4 70/55/4 66/59/4
f 13/18/5 14/17/5 69/51/5 68/56/5
f 15/13/5 13/18/5 68/56/5 70/55/5
f 14/17/6 12/20/6 67/52/6 69/51/6
f 34/54/6 32/53/6 71/39/6 73/36/6
f 35/58/5 33/57/5 72/35/5 74/32/5
f 33/57/5 34/54/5 73/36/5 72/35/5
f 31/60/4 35/58/4 74/32/4 75/31/4
f 23/37/28 21/40/28 77/49/28 79/46/28
f 24/33/29 22/38/29 78/45/29 80/42/29
f 22/38/29 23/37/29 79/46/29 78/45/29
f 25/34/30 24/33/30 80/42/30 76/41/30
f 30/44/31 29/43/31 84/5/31 85/9/31
f 27/48/32 28/47/32 83/1/32 82/6/32
f 29/43/32 27/48/32 82/6/32 84/5/32
f 28/47/33 26/50/33 81/2/33 83/1/33
