# Blender v2.82 (sub 7) OBJ File: 'playground.blend'
# www.blender.org
mtllib l5.mtl
o FlyTrack.004_Plane.007
v 75.656036 5.870006 109.999870
v 79.656036 5.870006 109.999870
v 77.656036 5.870172 110.000267
v 78.656036 5.870172 110.000267
v 76.656036 5.870172 110.000267
v 75.656036 -0.117393 89.927124
v 79.656036 -0.117393 89.927124
v 77.656036 -0.371294 89.927124
v 78.656036 -0.371294 89.927124
v 76.656036 -0.371294 89.927124
v 75.656036 2.614206 99.868607
v 79.656036 2.614206 99.868607
v 77.656036 2.360306 99.868607
v 78.656036 2.360306 99.868607
v 76.656036 2.360306 99.868607
v 75.656036 -0.672011 84.956383
v 79.656036 -0.651843 84.956383
v 77.656036 -0.943161 84.956383
v 78.656036 -0.932460 84.956383
v 76.656036 -0.925911 84.956383
v 79.656036 1.153099 94.897865
v 77.656036 0.899199 94.897865
v 78.656036 0.899199 94.897865
v 76.656036 0.899199 94.897865
v 75.656036 1.153099 94.897865
v 75.656036 5.128882 104.839340
v 79.656036 5.128882 104.839340
v 77.656036 4.874982 104.839340
v 78.656036 4.874982 104.839340
v 76.656036 4.874982 104.839340
v 75.656036 5.688304 107.324715
v 79.656036 5.688304 107.324715
v 77.656036 5.598993 107.324715
v 78.656036 5.598993 107.324715
v 76.656036 5.598993 107.324715
v 79.656036 3.903432 102.353973
v 77.656036 3.649532 102.353973
v 78.656036 3.649532 102.353973
v 76.656036 3.649532 102.353973
v 75.656036 3.903432 102.353973
v 75.656036 1.802732 97.383232
v 79.656036 1.802732 97.383232
v 77.656036 1.548833 97.383232
v 78.656036 1.548833 97.383232
v 76.656036 1.548833 97.383232
v 79.656036 0.452919 92.412491
v 77.656036 0.199018 92.412491
v 78.656036 0.199018 92.412491
v 76.656036 0.199018 92.412491
v 75.656036 0.452919 92.412491
v 75.656036 -0.465666 87.441757
v 79.656036 -0.465666 87.441757
v 77.656036 -0.719565 87.441757
v 78.656036 -0.719565 87.441757
v 76.656036 -0.719565 87.441757
v 79.656036 -0.913490 82.471016
v 77.656036 -1.137826 82.471016
v 78.656036 -1.177966 82.471016
v 76.656036 -1.046212 82.471016
v 75.656036 -0.792312 82.471016
v 79.656036 -1.361197 80.001976
v 77.656036 -1.144486 80.001976
v 78.656036 -1.251102 80.001976
v 76.656036 -1.032684 80.001976
v 75.656036 -0.922578 80.001976
vt 0.130831 0.404422
vt 0.097841 0.402459
vt 0.097735 0.321054
vt 0.130757 0.322554
vt 0.065826 0.402480
vt 0.033852 0.402471
vt 0.033862 0.321047
vt 0.065796 0.321043
vt 0.000857 0.404469
vt 0.000842 0.322589
vt 0.033913 0.739446
vt 0.001098 0.742925
vt 0.001608 0.653430
vt 0.034263 0.650293
vt 0.098053 0.739412
vt 0.065918 0.739496
vt 0.065927 0.650340
vt 0.097626 0.650357
vt 0.130838 0.742864
vt 0.130276 0.653463
vt 0.033697 0.240846
vt 0.000540 0.241872
vt 0.000036 0.161507
vt 0.033534 0.160657
vt 0.097800 0.240834
vt 0.065760 0.240805
vt 0.065756 0.160653
vt 0.097933 0.160775
vt 0.130953 0.241817
vt 0.131171 0.161431
vt 0.034025 0.567391
vt 0.001099 0.569831
vt 0.000716 0.487400
vt 0.033784 0.485231
vt 0.097786 0.567395
vt 0.065938 0.567353
vt 0.065882 0.485198
vt 0.097976 0.485184
vt 0.130733 0.569813
vt 0.131050 0.487330
vt 0.130806 0.913581
vt 0.098397 0.912925
vt 0.098466 0.828865
vt 0.131627 0.831672
vt 0.066081 0.912940
vt 0.033698 0.913007
vt 0.033554 0.828988
vt 0.065995 0.828953
vt 0.001304 0.913701
vt 0.000386 0.831821
vt 0.033969 0.999793
vt 0.001797 0.999964
vt 0.098235 0.999761
vt 0.066140 0.999733
vt 0.130425 0.999891
vt 0.000317 0.080906
vt 0.033671 0.080093
vt 0.065935 0.080351
vt 0.098280 0.080676
vt 0.131545 0.081185
vt 0.099175 0.001109
vt 0.131627 0.001454
vt 0.066725 0.000779
vt 0.034332 0.000420
vt 0.001929 0.000036
vn 0.2402 0.9461 -0.2171
vn 0.0000 0.9747 -0.2237
vn -0.2402 0.9461 -0.2171
vn -0.2199 0.8660 -0.4492
vn 0.0000 0.8877 -0.4605
vn 0.2199 0.8660 -0.4492
vn -0.2574 0.9632 -0.0773
vn 0.0086 0.9962 -0.0862
vn -0.0053 0.9962 -0.0875
vn 0.2453 0.9661 -0.0802
vn -0.2386 0.9396 -0.2456
vn 0.0000 0.9675 -0.2529
vn 0.2386 0.9396 -0.2456
vn 0.1639 0.9552 -0.2466
vn 0.0000 0.9601 -0.2797
vn -0.1639 0.9552 -0.2466
vn -0.0444 0.9955 -0.0843
vn 0.0000 0.9949 -0.1008
vn 0.0444 0.9955 -0.0843
vn 0.2220 0.8745 -0.4312
vn 0.0000 0.8969 -0.4422
vn -0.2220 0.8745 -0.4312
vn 0.2346 0.9241 -0.3017
vn 0.0000 0.9506 -0.3104
vn -0.2346 0.9241 -0.3017
vn -0.2374 0.9350 -0.2634
vn 0.0000 0.9625 -0.2712
vn 0.2374 0.9350 -0.2634
vn 0.2439 0.9604 -0.1346
vn 0.0000 0.9903 -0.1388
vn -0.2439 0.9604 -0.1346
vn -0.2617 0.9602 -0.0980
vn 0.0542 0.9965 -0.0631
vn 0.0147 0.9960 -0.0882
vn 0.2458 0.9682 -0.0469
vn 0.1790 0.9836 -0.0233
vn 0.1012 0.9949 0.0014
vn 0.0732 0.9972 -0.0161
vn -0.0765 0.9916 -0.1046
usemtl Material.008
s off
f 50/1/1 49/2/1 10/3/1 6/4/1
f 47/5/2 48/6/2 9/7/2 8/8/2
f 49/2/2 47/5/2 8/8/2 10/3/2
f 48/6/3 46/9/3 7/10/3 9/7/3
f 38/11/4 36/12/4 12/13/4 14/14/4
f 39/15/5 37/16/5 13/17/5 15/18/5
f 37/16/5 38/11/5 14/14/5 13/17/5
f 40/19/6 39/15/6 15/18/6 11/20/6
f 54/21/7 52/22/7 17/23/7 19/24/7
f 55/25/8 53/26/8 18/27/8 20/28/8
f 53/26/9 54/21/9 19/24/9 18/27/9
f 51/29/10 55/25/10 20/28/10 16/30/10
f 44/31/11 42/32/11 21/33/11 23/34/11
f 45/35/12 43/36/12 22/37/12 24/38/12
f 43/36/12 44/31/12 23/34/12 22/37/12
f 41/39/13 45/35/13 24/38/13 25/40/13
f 31/41/14 35/42/14 30/43/14 26/44/14
f 33/45/15 34/46/15 29/47/15 28/48/15
f 35/42/15 33/45/15 28/48/15 30/43/15
f 34/46/16 32/49/16 27/50/16 29/47/16
f 4/51/17 2/52/17 32/49/17 34/46/17
f 5/53/18 3/54/18 33/45/18 35/42/18
f 3/54/18 4/51/18 34/46/18 33/45/18
f 1/55/19 5/53/19 35/42/19 31/41/19
f 26/44/20 30/43/20 39/15/20 40/19/20
f 28/48/21 29/47/21 38/11/21 37/16/21
f 30/43/21 28/48/21 37/16/21 39/15/21
f 29/47/22 27/50/22 36/12/22 38/11/22
f 11/20/23 15/18/23 45/35/23 41/39/23
f 13/17/24 14/14/24 44/31/24 43/36/24
f 15/18/24 13/17/24 43/36/24 45/35/24
f 14/14/25 12/13/25 42/32/25 44/31/25
f 23/34/26 21/33/26 46/9/26 48/6/26
f 24/38/27 22/37/27 47/5/27 49/2/27
f 22/37/27 23/34/27 48/6/27 47/5/27
f 25/40/28 24/38/28 49/2/28 50/1/28
f 6/4/29 10/3/29 55/25/29 51/29/29
f 8/8/30 9/7/30 54/21/30 53/26/30
f 10/3/30 8/8/30 53/26/30 55/25/30
f 9/7/31 7/10/31 52/22/31 54/21/31
f 19/24/32 17/23/32 56/56/32 58/57/32
f 20/28/33 18/27/33 57/58/33 59/59/33
f 18/27/34 19/24/34 58/57/34 57/58/34
f 16/30/35 20/28/35 59/59/35 60/60/35
f 60/60/36 59/59/36 64/61/36 65/62/36
f 59/59/37 57/58/37 62/63/37 64/61/37
f 57/58/38 58/57/38 63/64/38 62/63/38
f 58/57/39 56/56/39 61/65/39 63/64/39
